<svg width="82" height="82" viewBox="0 0 82 82" fill="none" xmlns="http://www.w3.org/2000/svg">
<rect width="82" height="82" rx="41" fill="#EFF0FE"/>
<rect x="16" y="16" width="50" height="50" rx="25" fill="#EFF0FE"/>
<path d="M27.5758 38.0253C29.2194 30.6113 36.562 25.9336 43.9759 27.5772C44.9869 27.8014 45.9881 27.1635 46.2123 26.1525C46.4364 25.1415 45.7985 24.1402 44.7875 23.9161C35.3516 21.8242 26.0065 27.7777 23.9147 37.2136C21.8228 46.6495 27.7763 55.9946 37.2121 58.0865C46.648 60.1784 55.9931 54.2249 58.085 44.789C58.3091 43.778 57.6713 42.7767 56.6603 42.5526C55.6493 42.3285 54.648 42.9664 54.4239 43.9773C52.7803 51.3913 45.4377 56.069 38.0238 54.4254C30.6099 52.7817 25.9321 45.4392 27.5758 38.0253Z" fill="#6A41F1"/>
<path d="M56.0757 32.9508C56.8079 32.2186 56.8079 31.0314 56.0757 30.2992C55.3434 29.5669 54.1563 29.5669 53.424 30.2992L40.9998 42.7234L35.4507 37.1742C34.7184 36.4419 33.5313 36.4419 32.799 37.1742C32.0668 37.9064 32.0668 39.0936 32.799 39.8258L39.674 46.7008C40.4063 47.4331 41.5934 47.4331 42.3257 46.7008L56.0757 32.9508Z" fill="#6A41F1"/>
</svg>
