<svg width="32" height="32" viewBox="0 0 32 32" fill="none" xmlns="http://www.w3.org/2000/svg">
<path d="M21.8316 13.8317C22.3523 13.311 22.3523 12.4668 21.8316 11.9461C21.3109 11.4254 20.4667 11.4254 19.946 11.9461L14.6666 17.2255L12.4983 15.0572C11.9776 14.5365 11.1333 14.5365 10.6126 15.0572C10.0919 15.5779 10.0919 16.4221 10.6126 16.9428L13.7237 20.0539C14.2444 20.5746 15.0887 20.5746 15.6094 20.0539L21.8316 13.8317Z" fill="#6A41F1"/>
<path fill-rule="evenodd" clip-rule="evenodd" d="M9.33323 4.44446C6.63317 4.44446 4.44434 6.63329 4.44434 9.33335V22.6667C4.44434 25.3667 6.63317 27.5556 9.33323 27.5556H22.6666C25.3666 27.5556 27.5554 25.3667 27.5554 22.6667V9.33335C27.5554 6.63329 25.3666 4.44446 22.6666 4.44446H9.33323ZM7.111 9.33335C7.111 8.10605 8.10593 7.11112 9.33323 7.11112H22.6666C23.8939 7.11112 24.8888 8.10605 24.8888 9.33335V22.6667C24.8888 23.894 23.8939 24.8889 22.6666 24.8889H9.33323C8.10593 24.8889 7.111 23.894 7.111 22.6667V9.33335Z" fill="#6A41F1"/>
</svg>
