<svg width="323" height="431" viewBox="0 0 323 431" fill="none" xmlns="http://www.w3.org/2000/svg">
<path d="M119.637 277.057L161.339 268.898V378.474C158.729 378.474 156.197 379.367 154.166 381.006L142.222 390.638C138.582 393.573 136.466 397.998 136.466 402.675H109.576V386.541L104.948 384.437C103.478 383.769 102.924 381.965 103.766 380.587L109.576 371.079L103.676 367.023C100.783 365.034 99.5086 361.404 100.523 358.044L109.576 328.056L89.4087 356.29L67.2246 350.24L90.8219 299.604C96.2698 287.913 106.98 279.533 119.637 277.057Z" fill="#09116F"/>
<path d="M203.041 277.057L161.339 268.898V378.474C163.949 378.474 166.48 379.367 168.512 381.006L180.456 390.638C184.096 393.573 186.212 397.998 186.212 402.675H213.102V386.541L217.73 384.437C219.2 383.769 219.754 381.965 218.912 380.587L213.102 371.079L219.002 367.023C221.894 365.034 223.169 361.404 222.155 358.044L213.102 328.056L233.269 356.29L255.453 350.24L231.856 299.604C226.408 287.913 215.698 279.533 203.041 277.057Z" fill="#09116F"/>
<path d="M116.437 277.683L161.34 268.898V370.407L109.577 371.079L103.677 367.023C100.785 365.034 99.5099 361.404 100.524 358.044L109.577 328.056L89.41 356.29L66.1433 348.864C61.9377 347.522 60.1454 342.559 62.5229 338.84L90.1958 295.545C96.1338 286.255 105.616 279.8 116.437 277.683Z" fill="#6A41F1"/>
<path d="M203.041 277.057L161.339 268.898V370.407L213.102 371.079L219.002 367.023C221.894 365.034 223.169 361.404 222.155 358.044L213.102 328.056L233.269 356.29L255.453 350.24L231.856 299.604C226.408 287.913 215.698 279.533 203.041 277.057Z" fill="#6A41F1"/>
<path d="M87.5423 359.39L89.9326 355.804L66.6281 349.231L63.7323 354.661C62.4949 356.981 61.8477 359.57 61.8477 362.199V362.901C61.8477 367.465 63.9815 371.767 67.6155 374.529L72.8439 378.503C75.156 380.26 78.3714 380.202 80.619 378.363C82.3201 376.971 83.1696 374.792 82.8587 372.616L82.7619 371.938L87.2925 373.332C89.2134 373.923 91.2943 373.182 92.4091 371.51C93.4397 369.964 93.4252 367.947 92.3727 366.416L87.5423 359.39Z" fill="url(#paint0_linear_23_24125)"/>
<path d="M235.137 359.39L232.747 355.804L256.052 349.231L258.947 354.661C260.185 356.981 260.832 359.57 260.832 362.199V362.901C260.832 367.465 258.698 371.767 255.064 374.529L249.836 378.503C247.524 380.26 244.308 380.202 242.061 378.363C240.36 376.971 239.51 374.792 239.821 372.616L239.918 371.938L235.387 373.332C233.466 373.923 231.385 373.182 230.271 371.51C229.24 369.964 229.254 367.947 230.307 366.416L235.137 359.39Z" fill="url(#paint1_linear_23_24125)"/>
<path d="M109.01 401.666L137.138 403.196V411.503C137.138 413.691 135.394 415.48 133.207 415.535L100.963 416.35C98.7698 416.406 97.0381 414.503 97.2996 412.325C97.9463 406.939 102.127 402.658 107.496 401.885L109.01 401.666Z" fill="url(#paint2_linear_23_24125)"/>
<path d="M214.606 401.666L185.541 403.196V411.5C185.541 413.689 187.287 415.478 189.476 415.532L223.051 416.354C225.247 416.407 226.977 414.497 226.706 412.318C226.039 406.937 221.841 402.675 216.471 401.926L214.606 401.666Z" fill="url(#paint3_linear_23_24125)"/>
<path d="M58.1902 96.8032C70.6414 103.836 99.1833 122.314 113.742 139.96C107.995 144.755 98.5174 151.498 85.0082 166.334C70.1626 182.638 66.8103 191.109 62.0213 196.064C44.3981 162.306 52.1243 115.824 58.1902 96.8032Z" fill="#6A41F1"/>
<path d="M64.8964 121.185C74.8298 126.779 97.6002 141.475 109.215 155.51C104.63 159.324 97.069 164.687 86.2915 176.487C74.4478 189.455 71.7734 196.193 67.9528 200.134C53.8932 173.283 60.057 136.313 64.8964 121.185Z" fill="url(#paint4_linear_23_24125)"/>
<path d="M265.775 96.8032C253.323 103.836 224.782 122.314 210.223 139.96C215.97 144.755 225.447 151.498 238.957 166.334C253.802 182.638 257.155 191.109 261.943 196.064C279.567 162.306 271.841 115.824 265.775 96.8032Z" fill="#6A41F1"/>
<path d="M259.068 121.185C249.135 126.779 226.365 141.475 214.75 155.51C219.335 159.324 226.896 164.687 237.673 176.487C249.517 189.455 252.191 196.193 256.012 200.134C270.072 173.283 263.908 136.313 259.068 121.185Z" fill="url(#paint5_linear_23_24125)"/>
<path d="M162.181 126.382C219.248 126.382 265.511 166.583 265.511 216.174C265.511 227.307 263.177 237.967 258.915 247.805C264.498 246.582 269.925 245.23 275.179 243.756C268.015 258.685 255.558 271.463 239.681 280.575C244.678 279.842 249.549 279.043 254.279 278.179C239.775 297.875 203.574 311.834 161.209 311.834C118.844 311.834 82.6424 297.876 68.1387 278.179C73.3605 279.133 78.7534 280.009 84.2998 280.803C68.2318 271.676 55.6256 258.81 48.4023 243.756C53.925 245.305 59.6396 246.717 65.5244 247.989C61.2114 238.1 58.8496 227.377 58.8496 216.174C58.8496 166.583 105.113 126.382 162.181 126.382Z" fill="url(#paint6_linear_23_24125)"/>
<path fill-rule="evenodd" clip-rule="evenodd" d="M260.169 264.893C254.288 270.87 247.387 276.157 239.68 280.58C244.679 279.847 249.551 279.046 254.283 278.181C239.779 297.877 203.576 311.835 161.211 311.835C118.846 311.835 82.6436 297.877 68.1396 278.181C73.3602 279.135 78.7517 280.012 84.2968 280.805C76.3331 276.282 69.2201 270.839 63.1914 264.666C70.5235 266.366 79.6979 267.558 90.8122 267.558C109.622 267.558 119.602 264.329 129.235 261.212C138.222 258.305 146.908 255.494 162.182 255.494C177.455 255.494 186.141 258.305 195.128 261.212C204.762 264.329 214.741 267.558 233.551 267.558C244.164 267.558 253.008 266.471 260.169 264.893Z" fill="white"/>
<path d="M147.895 269.689C147.895 264.548 155.097 263.52 161.339 263.52V280.998C156.058 280.998 147.895 274.83 147.895 269.689Z" fill="#09116F"/>
<path d="M176.129 269.689C176.129 264.548 168.206 263.52 161.34 263.52V280.998C167.15 280.998 176.129 274.83 176.129 269.689Z" fill="#09116F"/>
<path d="M137.08 283.314C142.025 286.623 148.948 289.27 154.882 289.27C160.816 289.27 161.31 283.976 161.31 280.998" stroke="#09116F" stroke-width="6.72245" stroke-linecap="round"/>
<path d="M185.541 283.314C180.596 286.623 173.673 289.27 167.739 289.27C161.805 289.27 161.311 283.976 161.311 280.998" stroke="#09116F" stroke-width="6.72245" stroke-linecap="round"/>
<path d="M120.653 209.789C129.418 214.85 134.212 224.563 134.544 235.558C124.856 240.768 114.047 241.474 105.282 236.414C96.5164 231.353 91.7226 221.639 91.3911 210.643C101.079 205.433 111.889 204.729 120.653 209.789Z" fill="#09116F"/>
<circle cx="114.953" cy="219.965" r="3.36122" fill="white"/>
<path d="M203.863 208.753C195.098 213.813 190.538 223.932 190.57 235.558C200.622 241.399 211.666 242.509 220.431 237.449C229.195 232.388 233.755 222.27 233.723 210.644C223.671 204.803 212.628 203.693 203.863 208.753Z" fill="#09116F"/>
<ellipse cx="2.68898" cy="3.36122" rx="2.68898" ry="3.36122" transform="matrix(-1 0 0 1 212.43 216.603)" fill="white"/>
<path d="M133.105 204.362C125.27 196.581 110.202 192.95 98.1484 196.063" stroke="#09116F" stroke-width="6.72245" stroke-linecap="round"/>
<path d="M188.229 204.362C196.064 196.581 211.132 192.95 223.186 196.063" stroke="#09116F" stroke-width="6.72245" stroke-linecap="round"/>
<path d="M162.171 302.51C168.459 302.51 173.926 297.388 173.926 291.964L162.171 289.065L149.725 291.964C149.725 297.388 155.883 302.51 162.171 302.51Z" fill="url(#paint7_linear_23_24125)" stroke="#09116F" stroke-width="6.72245" stroke-linecap="round" stroke-linejoin="round"/>
<defs>
<linearGradient id="paint0_linear_23_24125" x1="61.8477" y1="349.231" x2="98.6083" y2="358.718" gradientUnits="userSpaceOnUse">
<stop stop-color="#FF6B29"/>
<stop offset="1" stop-color="#FFAB99"/>
</linearGradient>
<linearGradient id="paint1_linear_23_24125" x1="260.832" y1="349.231" x2="224.071" y2="358.718" gradientUnits="userSpaceOnUse">
<stop stop-color="#FF6B29"/>
<stop offset="1" stop-color="#FFAB99"/>
</linearGradient>
<linearGradient id="paint2_linear_23_24125" x1="97.2734" y1="401.666" x2="131.291" y2="424.909" gradientUnits="userSpaceOnUse">
<stop stop-color="#FF6B29"/>
<stop offset="1" stop-color="#FFAB99"/>
</linearGradient>
<linearGradient id="paint3_linear_23_24125" x1="226.734" y1="401.666" x2="192.32" y2="425.959" gradientUnits="userSpaceOnUse">
<stop stop-color="#FF6B29"/>
<stop offset="1" stop-color="#FFAB99"/>
</linearGradient>
<linearGradient id="paint4_linear_23_24125" x1="59.291" y1="121.185" x2="120.236" y2="130.885" gradientUnits="userSpaceOnUse">
<stop stop-color="#FF6B29"/>
<stop offset="1" stop-color="#FFAB99"/>
</linearGradient>
<linearGradient id="paint5_linear_23_24125" x1="264.674" y1="121.185" x2="203.728" y2="130.885" gradientUnits="userSpaceOnUse">
<stop stop-color="#FF6B29"/>
<stop offset="1" stop-color="#FFAB99"/>
</linearGradient>
<linearGradient id="paint6_linear_23_24125" x1="48.4023" y1="126.382" x2="307.695" y2="206.188" gradientUnits="userSpaceOnUse">
<stop stop-color="#FF6B29"/>
<stop offset="1" stop-color="#FFAB99"/>
</linearGradient>
<linearGradient id="paint7_linear_23_24125" x1="173.926" y1="289.065" x2="148.793" y2="300.452" gradientUnits="userSpaceOnUse">
<stop stop-color="#FF6B29"/>
<stop offset="1" stop-color="#FFAB99"/>
</linearGradient>
</defs>
</svg>
