<svg width="240" height="320" viewBox="0 0 240 320" fill="none" xmlns="http://www.w3.org/2000/svg">
<ellipse cx="119" cy="136" rx="109" ry="70" fill="#09116F"/>
<path d="M19.0517 16C29.7761 22.0576 54.3597 37.9726 66.899 53.1717C61.9493 57.3019 53.7861 63.1093 42.1505 75.8878C29.3637 89.9304 26.4763 97.2271 22.3515 101.495C7.17241 72.4184 13.827 32.3831 19.0517 16Z" fill="#09116F"/>
<path d="M24.828 37C33.3838 41.818 52.9963 54.4763 63 66.5652C59.0512 69.8502 52.5387 74.4692 43.2559 84.6329C33.0548 95.8019 30.7513 101.605 27.4606 105C15.3508 81.8734 20.6598 50.0306 24.828 37Z" fill="url(#paint0_linear_16_23528)"/>
<path d="M217.847 16C207.122 22.0576 182.539 37.9726 169.999 53.1717C174.949 57.3019 183.112 63.1093 194.748 75.8878C207.535 89.9304 210.422 97.2271 214.547 101.495C229.726 72.4184 223.071 32.3831 217.847 16Z" fill="#09116F"/>
<path d="M212.07 37C203.515 41.818 183.902 54.4763 173.898 66.5652C177.847 69.8502 184.36 74.4692 193.643 84.6329C203.844 95.8019 206.147 101.605 209.438 105C221.548 81.8734 216.239 50.0306 212.07 37Z" fill="url(#paint1_linear_16_23528)"/>
<path d="M118.5 170.102L167 180L200.21 222.698C201.162 223.922 200.829 225.702 199.5 226.5L208.594 241.959C209.11 242.837 208.884 243.962 208.069 244.573L205.5 246.5L207.923 251.043C208.958 252.984 209.5 255.151 209.5 257.352V257.938C209.5 261.758 207.714 265.357 204.674 267.668L200.299 270.993C198.364 272.463 195.674 272.415 193.793 270.876C192.37 269.711 191.659 267.888 191.919 266.067L192 265.5L188.209 266.666C186.602 267.161 184.861 266.541 183.928 265.142C183.065 263.848 183.077 262.16 183.958 260.879L188 255L186 252L184.2 253.028C183.256 253.568 182.052 253.254 181.492 252.321L178 246.5L173 249C174.833 252 178.5 260.6 178.5 271C178.5 281.4 173.833 289.333 171.5 292L167 292.5L167.5 295L169.019 295.253C173.507 296.001 177.042 299.486 177.856 303.963L178.362 306.744C178.451 307.235 178.379 307.741 178.156 308.187C177.756 308.988 176.927 309.484 176.032 309.46L143.918 308.58C142.294 308.536 141 307.206 141 305.581V295L129.5 280C127.887 280.323 123.495 280.955 118.5 280.995V281C118.417 281 118.333 280.997 118.25 280.997C118.167 280.997 118.083 281 118 281V280.995C113.005 280.955 108.613 280.323 107 280L95.5 295V305.581C95.5 307.206 94.2063 308.536 92.582 308.58L60.4678 309.46C59.5726 309.484 58.7442 308.988 58.3438 308.187C58.1209 307.741 58.0485 307.235 58.1377 306.744L58.6436 303.963C59.4575 299.486 62.9931 296.001 67.4814 295.253L69 295L69.5 292.5L65 292C62.6667 289.333 58 281.4 58 271C58 260.6 61.6667 252 63.5 249L58.5 246.5L55.0078 252.321C54.448 253.254 53.2444 253.568 52.2998 253.028L50.5 252L48.5 255L52.542 260.879C53.4227 262.16 53.4346 263.848 52.5723 265.142C51.6395 266.541 49.8983 267.161 48.291 266.666L44.5 265.5L44.5811 266.067C44.841 267.888 44.1302 269.711 42.707 270.876C40.8264 272.415 38.1358 272.463 36.2012 270.993L31.8262 267.668C28.7856 265.357 27.0001 261.758 27 257.938V257.352C27 255.151 27.5418 252.984 28.5771 251.043L31 246.5L28.4307 244.573C27.6162 243.962 27.3902 242.837 27.9062 241.959L37 226.5C35.6708 225.702 35.3384 223.922 36.29 222.698L69.5 180L118 170.102V170L118.25 170.051L118.5 170V170.102Z" fill="#09116F"/>
<path d="M107 280C108.667 280.333 113.3 281 118.5 281V170L69.5 180L36.2899 222.699C35.3383 223.922 35.6708 225.702 37 226.5L27.9066 241.959C27.3903 242.836 27.6159 243.962 28.4305 244.573L31 246.5L28.577 251.043C27.5416 252.985 27 255.151 27 257.351V257.938C27 261.757 28.7855 265.357 31.8263 267.668L36.2011 270.993C38.1357 272.463 40.8262 272.415 42.7069 270.876C44.1303 269.712 44.8411 267.888 44.581 266.067L44.5 265.5L48.2909 266.666C49.8982 267.161 51.6394 266.541 52.5722 265.142C53.4346 263.848 53.4225 262.16 52.5418 260.879L48.5 255L50.5 252L52.3001 253.029C53.2447 253.568 54.4476 253.254 55.0073 252.321L58.5 246.5L63.5 249C61.6667 252 58 260.6 58 271C58 281.4 62.6667 289.333 65 292L69.5 292.5L69 295L67.4818 295.253C62.9933 296.001 59.4571 299.486 58.6431 303.963L58.1374 306.744C58.0482 307.235 58.1205 307.741 58.3435 308.187C58.744 308.988 59.5723 309.484 60.4675 309.46L92.5822 308.58C94.2064 308.535 95.5 307.206 95.5 305.581V295L107 280Z" fill="#09116F"/>
<path d="M119 43C168.153 43 208 77.2502 208 119.5C208 128.985 205.99 138.066 202.319 146.447C207.127 145.405 211.801 144.255 216.326 142.999C210.156 155.718 199.425 166.605 185.749 174.368C190.055 173.744 194.251 173.064 198.326 172.327C185.833 189.108 154.653 201 118.164 201C81.6742 201 50.4923 189.108 38 172.327C42.4963 173.14 47.1402 173.886 51.916 174.562C38.0776 166.786 27.2211 155.823 21 142.999C25.7572 144.319 30.6799 145.522 35.749 146.605C32.0342 138.18 30 129.044 30 119.5C30 77.2502 69.8467 43 119 43Z" fill="url(#paint2_linear_16_23528)"/>
<path d="M79.425 119.008C87.3296 123.571 92.2218 131.349 93.4038 139.737C85.5481 142.908 76.366 142.563 68.4607 137.998C60.5556 133.434 55.6645 125.656 54.4829 117.267C62.3383 114.096 71.5202 114.444 79.425 119.008Z" fill="#09116F"/>
<circle cx="76.0898" cy="126" r="3" fill="white"/>
<path d="M157.552 119.008C149.647 123.571 144.755 131.349 143.573 139.737C151.428 142.908 160.611 142.563 168.516 137.998C176.421 133.434 181.312 125.656 182.494 117.267C174.638 114.096 165.456 114.444 157.552 119.008Z" fill="#09116F"/>
<circle cx="3" cy="3" r="3" transform="matrix(-1 0 0 1 163.887 123)" fill="white"/>
<path d="M49.157 50.0808C67.1278 29.7588 99.4753 11 119.5 11V82.9087C77.9103 82.9087 13.7287 110.005 13.7287 148.564C13.7287 169.536 53.4058 185.825 89.6722 192.118C105.997 194.95 119.5 208.372 119.5 224.94V233.5C114.879 227.247 100.502 215.783 86.1256 210.573C70.5319 204.921 5 189.73 5 148.564C5 107.399 31.1861 70.4028 49.157 50.0808Z" fill="#09116F"/>
<path d="M189.843 50.0808C171.872 29.7588 139.525 11 119.5 11V82.9087C161.09 82.9087 225.271 110.005 225.271 148.564C225.271 175.66 159.036 194.94 119.5 194.94V233.5C124.121 227.247 138.498 215.783 152.874 210.573C168.468 204.921 234 189.73 234 148.564C234 107.399 207.814 70.4028 189.843 50.0808Z" fill="#09116F"/>
<path d="M117.211 227C115.86 219.688 110.726 204.05 101 200H134C121.495 204.05 117.596 219.688 117.211 227Z" fill="url(#paint3_linear_16_23528)"/>
<path d="M120.521 153.008C146.614 153.319 149.906 163.278 180.732 163.278C189.869 163.278 197.483 162.351 203.648 161.008C198.584 166.097 192.645 170.602 186.01 174.368C190.315 173.744 194.512 173.064 198.587 172.327C186.094 189.108 154.914 201 118.425 201C81.9351 201 50.753 189.108 38.2607 172.327C42.7569 173.14 47.4011 173.886 52.1768 174.562C45.3188 170.708 39.194 166.071 34.002 160.813C40.3167 162.262 48.2175 163.278 57.7891 163.278C89.1047 163.278 92.0047 153 119.261 153L120.521 153.008Z" fill="white"/>
<path d="M106.775 167.071C106.775 162.684 113.357 161.806 119.061 161.806V176.725C114.235 176.725 106.775 171.459 106.775 167.071Z" fill="#09116F"/>
<path d="M131.348 167.071C131.348 162.684 124.766 161.806 119.062 161.806V176.725C123.888 176.725 131.348 171.459 131.348 167.071Z" fill="#09116F"/>
<path d="M98 179.796C102.388 184.184 108.531 187.694 113.796 187.694C119.061 187.694 119.5 180.674 119.5 176.725" stroke="#09116F" stroke-width="5" stroke-linecap="round"/>
<path d="M141 179.796C136.612 184.184 130.469 187.694 125.204 187.694C119.939 187.694 119.5 180.674 119.5 176.725" stroke="#09116F" stroke-width="5" stroke-linecap="round"/>
<ellipse cx="75" cy="126" rx="33" ry="35" stroke="white" stroke-width="5" stroke-linecap="round"/>
<ellipse cx="162" cy="126" rx="33" ry="35" stroke="white" stroke-width="5" stroke-linecap="round"/>
<path d="M105.5 110.5C107.142 108.858 109.09 107.556 111.235 106.668C113.38 105.78 115.679 105.322 118 105.322C120.321 105.322 122.62 105.78 124.765 106.668C126.91 107.556 128.858 108.858 130.5 110.5" stroke="white" stroke-width="5"/>
<path d="M116.624 248.744C91.5323 248.744 75.7213 243.86 69.3016 239.953L66 248.744C72.2363 252.163 91.0921 259 116.624 259C142.157 259 162.847 250.86 170 246.791L165.598 238C158.261 242.233 141.716 248.744 116.624 248.744Z" fill="url(#paint4_linear_16_23528)"/>
<path d="M48.8889 255.444L51.1111 252.111L29.4444 246L26.7522 251.048C25.6018 253.205 25 255.612 25 258.057V258.709C25 262.953 26.9839 266.952 30.3625 269.52L35.2234 273.214C37.373 274.848 40.3625 274.794 42.4521 273.085C44.0336 271.791 44.8234 269.764 44.5344 267.741L44.4444 267.111L48.6566 268.407C50.4425 268.957 52.3772 268.268 53.4136 266.713C54.3717 265.276 54.3583 263.4 53.3798 261.977L48.8889 255.444Z" fill="url(#paint5_linear_16_23528)"/>
<path d="M187.111 255.444L184.889 252.111L206.556 246L209.248 251.048C210.398 253.205 211 255.612 211 258.057V258.709C211 262.953 209.016 266.952 205.637 269.52L200.777 273.214C198.627 274.848 195.638 274.794 193.548 273.085C191.966 271.791 191.177 269.764 191.466 267.741L191.556 267.111L187.343 268.407C185.558 268.957 183.623 268.268 182.586 266.713C181.628 265.276 181.642 263.4 182.62 261.977L187.111 255.444Z" fill="url(#paint6_linear_16_23528)"/>
<path d="M26 105C39.2728 78.9342 74.7627 27.8588 114.009 23.7622C116.755 23.4755 119 25.7386 119 28.5V66C119 68.7614 116.757 70.9902 113.998 71.0988C72.6202 72.7282 38.3394 94.1029 26 105Z" fill="#6A41F1"/>
<path d="M96 211.5C90 207.1 72.5 204 64.5 203L37.5 238.5H43C45 238.5 62.8333 216.5 66.5 211.5C69.1667 213.167 66.2 229.5 73 233.5C79.8 237.5 99.5 239.833 108.5 240.5C106.833 232.667 102 215.9 96 211.5Z" fill="#6A41F1"/>
<path d="M95.5 265C85.9 264.6 73.8333 260.833 69 259C67.8333 261.5 65.5 267.9 65.5 273.5C65.5 279.1 68.8333 284.167 70.5 286L89 288.5L98 273.5C101.5 274 109.4 274.7 113 273.5C116.6 272.3 119.167 267.333 120 265C115.833 265.167 105.1 265.4 95.5 265Z" fill="#6A41F1"/>
<defs>
<linearGradient id="paint0_linear_16_23528" x1="20" y1="37" x2="72.4932" y2="45.3549" gradientUnits="userSpaceOnUse">
<stop stop-color="#FF6B29"/>
<stop offset="1" stop-color="#FFAB99"/>
</linearGradient>
<linearGradient id="paint1_linear_16_23528" x1="216.898" y1="37" x2="164.405" y2="45.3549" gradientUnits="userSpaceOnUse">
<stop stop-color="#FF6B29"/>
<stop offset="1" stop-color="#FFAB99"/>
</linearGradient>
<linearGradient id="paint2_linear_16_23528" x1="21" y1="43" x2="243.907" y2="112.36" gradientUnits="userSpaceOnUse">
<stop stop-color="#FF6B29"/>
<stop offset="1" stop-color="#FFAB99"/>
</linearGradient>
<linearGradient id="paint3_linear_16_23528" x1="101" y1="200" x2="138.735" y2="211.608" gradientUnits="userSpaceOnUse">
<stop stop-color="#FF6B29"/>
<stop offset="1" stop-color="#FFAB99"/>
</linearGradient>
<linearGradient id="paint4_linear_16_23528" x1="66" y1="238" x2="116.974" y2="301.54" gradientUnits="userSpaceOnUse">
<stop stop-color="#FF6B29"/>
<stop offset="1" stop-color="#FFAB99"/>
</linearGradient>
<linearGradient id="paint5_linear_16_23528" x1="25" y1="246" x2="59.1771" y2="254.82" gradientUnits="userSpaceOnUse">
<stop stop-color="#FF6B29"/>
<stop offset="1" stop-color="#FFAB99"/>
</linearGradient>
<linearGradient id="paint6_linear_16_23528" x1="211" y1="246" x2="176.823" y2="254.82" gradientUnits="userSpaceOnUse">
<stop stop-color="#FF6B29"/>
<stop offset="1" stop-color="#FFAB99"/>
</linearGradient>
</defs>
</svg>
