<svg width="324" height="432" viewBox="0 0 324 432" fill="none" xmlns="http://www.w3.org/2000/svg">
<path d="M282.522 17.55C268.044 25.7278 234.856 47.2131 217.928 67.7319C224.61 73.3076 235.63 81.1476 251.338 98.3985C268.6 117.356 272.498 127.207 278.067 132.968C298.559 93.7149 289.575 39.6672 282.522 17.55Z" fill="#09116F"/>
<path d="M274.724 45.9C263.174 52.4044 236.697 69.4931 223.192 85.8131C228.523 90.2479 237.315 96.4835 249.847 110.204C263.618 125.283 266.728 133.117 271.17 137.7C287.519 106.479 280.351 63.4913 274.724 45.9Z" fill="url(#paint0_linear_23_24058)"/>
<path d="M41.1484 17.55C55.6263 25.7278 88.8141 47.2131 105.742 67.7319C99.0601 73.3076 88.0398 81.1476 72.3317 98.3985C55.0695 117.356 51.1716 127.207 45.6031 132.968C25.1113 93.7149 34.095 39.6672 41.1484 17.55Z" fill="#09116F"/>
<path d="M48.9455 45.9C60.4959 52.4044 86.9727 69.4931 100.478 85.8131C95.1468 90.2479 86.355 96.4835 73.8232 110.204C60.0517 125.283 56.9419 133.117 52.4995 137.7C36.1513 106.479 43.3185 63.4913 48.9455 45.9Z" fill="url(#paint1_linear_23_24058)"/>
<path d="M162.443 225.588L227.918 238.95L272.752 296.594C274.036 298.245 273.587 300.649 271.793 301.725L284.069 322.594C284.766 323.779 284.462 325.299 283.362 326.124L279.893 328.725L283.164 334.858C284.562 337.479 285.293 340.404 285.293 343.374V344.167C285.293 349.323 282.882 354.182 278.777 357.302L272.871 361.79C270.259 363.775 266.628 363.71 264.089 361.633C262.167 360.06 261.207 357.598 261.559 355.14L261.668 354.375L256.55 355.95C254.38 356.617 252.03 355.78 250.771 353.891C249.606 352.145 249.623 349.866 250.812 348.136L256.268 340.2L253.568 336.15L251.138 337.539C249.863 338.267 248.239 337.843 247.483 336.584L242.768 328.725L236.018 332.1C238.493 336.15 243.443 347.76 243.443 361.8C243.443 375.84 237.143 386.55 233.993 390.15L227.918 390.825L228.593 394.2L230.643 394.542C236.702 395.552 241.476 400.256 242.575 406.3L243.258 410.054C243.378 410.717 243.28 411.401 242.979 412.003C242.439 413.084 241.321 413.753 240.112 413.72L196.757 412.533C194.564 412.473 192.818 410.678 192.818 408.484V394.2L177.293 373.95C175.115 374.385 169.186 375.239 162.443 375.294V375.3C162.331 375.3 162.218 375.297 162.105 375.297C161.993 375.297 161.88 375.3 161.768 375.3V375.294C155.024 375.239 149.096 374.385 146.918 373.95L131.393 394.2V408.484C131.393 410.678 129.647 412.473 127.454 412.533L84.0986 413.72C82.8904 413.753 81.7721 413.084 81.2314 412.003C80.9305 411.401 80.8327 410.717 80.9531 410.054L81.6357 406.3C82.7346 400.256 87.5089 395.552 93.5684 394.542L95.6182 394.2L96.293 390.825L90.2178 390.15C87.0678 386.55 80.7676 375.84 80.7676 361.8C80.7677 347.76 85.7184 336.15 88.1934 332.1L81.4434 328.725L76.7275 336.584C75.9718 337.843 74.3484 338.267 73.0732 337.539L70.6426 336.15L67.9434 340.2L73.3994 348.136C74.5884 349.866 74.6046 352.145 73.4404 353.891C72.1812 355.78 69.8308 356.617 67.6611 355.95L62.543 354.375L62.6523 355.14C63.0034 357.598 62.0436 360.06 60.1221 361.633C57.5832 363.71 53.9516 363.775 51.3398 361.79L45.4336 357.302C41.3287 354.182 38.9181 349.323 38.918 344.167V343.374C38.918 340.404 39.6491 337.479 41.0469 334.858L44.3184 328.725L40.8486 326.124C39.749 325.299 39.4448 323.779 40.1416 322.594L52.418 301.725C50.6237 300.649 50.1747 298.245 51.459 296.594L96.293 238.95L161.768 225.588V225.45L162.105 225.518L162.443 225.45V225.588Z" fill="#09116F"/>
<path d="M162.159 301.05C163.982 291.178 170.912 270.067 184.043 264.6H139.493C156.375 270.067 161.638 291.178 162.159 301.05Z" fill="url(#paint2_linear_23_24058)"/>
<path d="M161.093 54C94.7358 54 40.9424 100.238 40.9424 157.275C40.9424 170.08 43.6563 182.34 48.6123 193.655C42.121 192.249 35.8103 190.694 29.7012 188.999C38.0308 206.17 52.5161 220.867 70.9785 231.348C65.1666 230.505 59.5025 229.586 54.002 228.592C70.8671 251.246 112.961 267.3 162.222 267.3C211.483 267.3 253.578 251.246 270.442 228.592C264.371 229.69 258.1 230.697 251.65 231.609C270.335 221.112 284.993 206.313 293.393 188.999C286.97 190.781 280.325 192.407 273.481 193.87C278.497 182.495 281.242 170.161 281.242 157.275C281.242 100.238 227.45 54.0001 161.093 54Z" fill="url(#paint3_linear_23_24058)"/>
<path d="M175.943 203.85C139.148 203.85 135.233 217.725 92.957 217.725C67.021 217.725 50.1699 212.205 41.4863 207.515C49.3413 216.793 59.2252 224.875 70.627 231.348C64.8151 230.505 59.1508 229.587 53.6504 228.592C70.5157 251.246 112.61 267.3 161.87 267.3C211.131 267.3 253.226 251.246 270.091 228.592C264.019 229.69 257.748 230.697 251.299 231.61C258.676 227.465 265.425 222.648 271.41 217.272C267.511 217.561 263.353 217.725 258.931 217.725C216.655 217.725 212.739 203.85 175.943 203.85Z" fill="white"/>
<path d="M214.045 221.758C214.045 215.835 205.16 214.65 197.459 214.65V234.79C203.975 234.79 214.045 227.682 214.045 221.758Z" fill="#09116F"/>
<path d="M180.875 221.758C180.875 215.835 189.76 214.65 197.461 214.65V234.79C190.945 234.79 180.875 227.682 180.875 221.758Z" fill="#09116F"/>
<path d="M221.842 239.32C216.883 245.26 209.94 250.012 203.989 250.012C198.038 250.012 197.542 240.508 197.542 235.162" stroke="#09116F" stroke-width="6.75" stroke-linecap="round"/>
<path d="M161.092 239.058C168.531 244.998 178.945 249.75 187.871 249.75C196.798 249.75 197.542 240.246 197.542 234.9" stroke="#09116F" stroke-width="6.75" stroke-linecap="round"/>
<path d="M231.855 158.058C222.866 163.248 218.349 173.902 218.63 186.255C229.188 192.675 240.673 194.09 249.663 188.9C258.651 183.71 263.169 173.056 262.888 160.703C252.33 154.283 240.844 152.868 231.855 158.058Z" fill="#09116F"/>
<circle cx="4.05" cy="4.05" r="4.05" transform="matrix(-1 0 0 1 238.404 166.05)" fill="white"/>
<path d="M132.431 152.449C145.925 158.559 154.614 171.332 157.161 186.233C144.283 194.15 128.95 196.046 115.457 189.937C101.964 183.827 93.2731 171.055 90.726 156.153C103.605 148.236 118.938 146.34 132.431 152.449Z" fill="#09116F"/>
<circle cx="129.579" cy="166.05" r="4.05" fill="white"/>
<ellipse cx="37.8" cy="48.6" rx="37.8" ry="48.6" transform="matrix(-1 0 0 1 275.842 117.45)" stroke="white" stroke-width="6.75" stroke-linecap="round"/>
<ellipse cx="44.55" cy="48.6" rx="44.55" ry="48.6" transform="matrix(-1 0 0 1 171.893 116.1)" stroke="white" stroke-width="6.75" stroke-linecap="round"/>
<path d="M204.967 147.825C202.751 145.609 200.12 143.851 197.224 142.652C194.329 141.452 191.226 140.835 188.092 140.835C184.958 140.835 181.855 141.452 178.959 142.652C176.064 143.851 173.433 145.609 171.217 147.825" stroke="white" stroke-width="6.75"/>
<path d="M162.443 332.1C193.223 332.1 212.618 325.35 220.493 319.95L224.543 332.1C216.893 336.825 193.763 346.275 162.443 346.275C131.123 346.275 105.743 335.025 96.968 329.4L102.368 317.25C111.368 323.1 131.663 332.1 162.443 332.1Z" fill="url(#paint4_linear_23_24058)"/>
<path d="M255.742 340.8L252.742 336.3L281.992 328.05L285.627 334.865C287.18 337.777 287.992 341.026 287.992 344.327V345.207C287.992 350.936 285.314 356.336 280.753 359.802L274.191 364.789C271.289 366.995 267.253 366.922 264.432 364.614C262.297 362.867 261.231 360.131 261.621 357.401L261.742 356.55L256.056 358.3C253.645 359.042 251.033 358.111 249.634 356.012C248.34 354.072 248.358 351.54 249.679 349.619L255.742 340.8Z" fill="url(#paint5_linear_23_24058)"/>
<path d="M69.1426 340.8L72.1426 336.3L42.8926 328.05L39.2581 334.865C37.705 337.777 36.8926 341.026 36.8926 344.327V345.207C36.8926 350.936 39.5709 356.336 44.132 359.802L50.6942 364.789C53.5962 366.995 57.6319 366.922 60.453 364.614C62.588 362.867 63.6542 360.131 63.2641 357.401L63.1426 356.55L68.829 358.3C71.2399 359.042 73.8517 358.111 75.2509 356.012C76.5444 354.072 76.5263 351.54 75.2053 349.619L69.1426 340.8Z" fill="url(#paint6_linear_23_24058)"/>
<path d="M135.442 278.775C127.342 272.835 103.717 268.65 92.9168 267.3L56.4668 315.225C57.8168 315.225 61.089 316.346 63.8918 315.225C67.2668 313.875 89.9918 285.525 94.9418 278.775C98.5418 281.025 95.2118 303.075 104.392 308.475C113.572 313.875 140.167 317.025 152.317 317.925C150.067 307.35 143.542 284.715 135.442 278.775Z" fill="#6A41F1"/>
<path d="M136.118 352.35C123.218 350.992 105.518 345.375 98.9926 342.9C97.4176 346.275 94.2676 354.915 94.2676 362.475C94.2676 370.035 98.7676 376.875 101.018 379.35L124.643 382.725L138.143 362.475C142.868 363.15 153.533 364.095 158.393 362.475C163.253 360.855 166.718 356.175 167.843 353.025C162.218 353.25 148.943 353.7 136.118 352.35Z" fill="#6A41F1"/>
<path d="M228.592 394.2L192.817 396.225V408.48C192.817 410.675 194.566 412.471 196.76 412.529L239.452 413.652C241.915 413.717 243.865 411.587 243.582 409.139L243.277 406.495C242.578 400.435 237.901 395.596 231.869 394.691L228.592 394.2Z" fill="url(#paint7_linear_23_24058)"/>
<path d="M95.617 394.2L131.392 396.225V408.48C131.392 410.675 129.643 412.471 127.449 412.529L84.7567 413.652C82.2941 413.717 80.3445 411.587 80.6269 409.139L80.932 406.495C81.6313 400.435 86.3076 395.596 92.3404 394.691L95.617 394.2Z" fill="url(#paint8_linear_23_24058)"/>
<defs>
<linearGradient id="paint0_linear_23_24058" x1="281.242" y1="45.9" x2="210.376" y2="57.1792" gradientUnits="userSpaceOnUse">
<stop stop-color="#FF6B29"/>
<stop offset="1" stop-color="#FFAB99"/>
</linearGradient>
<linearGradient id="paint1_linear_23_24058" x1="42.4277" y1="45.9" x2="113.294" y2="57.1792" gradientUnits="userSpaceOnUse">
<stop stop-color="#FF6B29"/>
<stop offset="1" stop-color="#FFAB99"/>
</linearGradient>
<linearGradient id="paint2_linear_23_24058" x1="184.043" y1="264.6" x2="133.101" y2="280.271" gradientUnits="userSpaceOnUse">
<stop stop-color="#FF6B29"/>
<stop offset="1" stop-color="#FFAB99"/>
</linearGradient>
<linearGradient id="paint3_linear_23_24058" x1="293.393" y1="54" x2="-7.53341" y2="147.636" gradientUnits="userSpaceOnUse">
<stop stop-color="#FF6B29"/>
<stop offset="1" stop-color="#FFAB99"/>
</linearGradient>
<linearGradient id="paint4_linear_23_24058" x1="224.543" y1="317.25" x2="152.739" y2="396.687" gradientUnits="userSpaceOnUse">
<stop stop-color="#FF6B29"/>
<stop offset="1" stop-color="#FFAB99"/>
</linearGradient>
<linearGradient id="paint5_linear_23_24058" x1="287.992" y1="328.05" x2="241.853" y2="339.957" gradientUnits="userSpaceOnUse">
<stop stop-color="#FF6B29"/>
<stop offset="1" stop-color="#FFAB99"/>
</linearGradient>
<linearGradient id="paint6_linear_23_24058" x1="36.8926" y1="328.05" x2="83.0317" y2="339.957" gradientUnits="userSpaceOnUse">
<stop stop-color="#FF6B29"/>
<stop offset="1" stop-color="#FFAB99"/>
</linearGradient>
<linearGradient id="paint7_linear_23_24058" x1="243.609" y1="394.2" x2="199.208" y2="423.379" gradientUnits="userSpaceOnUse">
<stop stop-color="#FF6B29"/>
<stop offset="1" stop-color="#FFAB99"/>
</linearGradient>
<linearGradient id="paint8_linear_23_24058" x1="80.5996" y1="394.2" x2="125.001" y2="423.379" gradientUnits="userSpaceOnUse">
<stop stop-color="#FF6B29"/>
<stop offset="1" stop-color="#FFAB99"/>
</linearGradient>
</defs>
</svg>
