<svg width="367" height="245" viewBox="0 0 367 245" fill="none" xmlns="http://www.w3.org/2000/svg">
<g clip-path="url(#clip0_16_23850)">
<path d="M251.1 157.127L274.75 152.5V214.644C273.27 214.644 271.834 215.151 270.682 216.08L263.908 221.542C261.844 223.207 260.644 225.717 260.644 228.369H245.394V219.219L242.769 218.026C241.935 217.647 241.621 216.624 242.099 215.842L245.394 210.45L242.047 208.149C240.407 207.022 239.684 204.963 240.26 203.057L245.394 186.05L233.956 202.062L221.375 198.631L234.758 169.914C237.847 163.284 243.921 158.532 251.1 157.127Z" fill="#09116F"/>
<path d="M298.4 157.127L274.75 152.5V214.644C276.23 214.644 277.666 215.151 278.818 216.08L285.592 221.542C287.656 223.207 288.856 225.717 288.856 228.369H304.106V219.219L306.731 218.026C307.565 217.647 307.879 216.624 307.401 215.842L304.106 210.45L307.453 208.149C309.093 207.022 309.816 204.963 309.24 203.057L304.106 186.05L315.544 202.062L328.125 198.631L314.742 169.914C311.653 163.284 305.579 158.532 298.4 157.127Z" fill="#09116F"/>
<path d="M249.283 157.483L274.75 152.5V210.069L245.393 210.45L242.047 208.149C240.407 207.022 239.684 204.963 240.259 203.057L245.393 186.05L233.956 202.062L220.761 197.851C218.376 197.09 217.359 194.276 218.707 192.166L234.402 167.612C237.769 162.344 243.147 158.683 249.283 157.483Z" fill="#6A41F1"/>
<path d="M298.4 157.127L274.75 152.5V210.069L304.106 210.45L307.453 208.149C309.093 207.022 309.816 204.963 309.24 203.057L304.106 186.05L315.544 202.062L328.125 198.631L314.742 169.914C311.653 163.284 305.579 158.532 298.4 157.127Z" fill="#6A41F1"/>
<path d="M232.896 203.82L234.252 201.787L221.035 198.059L219.393 201.138C218.691 202.454 218.324 203.922 218.324 205.414V205.812C218.324 208.4 219.534 210.84 221.595 212.406L224.561 214.66C225.872 215.656 227.695 215.624 228.97 214.581C229.935 213.791 230.417 212.555 230.24 211.321L230.185 210.937L232.755 211.727C233.844 212.063 235.024 211.642 235.657 210.694C236.241 209.817 236.233 208.673 235.636 207.805L232.896 203.82Z" fill="url(#paint0_linear_16_23850)"/>
<path d="M316.602 203.82L315.246 201.787L328.463 198.059L330.105 201.138C330.807 202.454 331.174 203.922 331.174 205.414V205.812C331.174 208.4 329.964 210.84 327.903 212.406L324.938 214.66C323.626 215.656 321.803 215.624 320.528 214.581C319.563 213.791 319.082 212.555 319.258 211.321L319.313 210.937L316.743 211.727C315.654 212.063 314.474 211.642 313.842 210.694C313.257 209.817 313.265 208.673 313.862 207.805L316.602 203.82Z" fill="url(#paint1_linear_16_23850)"/>
<path d="M245.072 227.797L261.025 228.665V233.376C261.025 234.616 260.035 235.631 258.795 235.662L240.508 236.125C239.265 236.156 238.283 235.077 238.431 233.842C238.798 230.787 241.169 228.36 244.214 227.921L245.072 227.797Z" fill="url(#paint2_linear_16_23850)"/>
<path d="M304.958 227.797L288.474 228.665V233.374C288.474 234.615 289.464 235.63 290.705 235.661L309.747 236.127C310.992 236.157 311.973 235.074 311.82 233.838C311.441 230.786 309.061 228.369 306.016 227.944L304.958 227.797Z" fill="url(#paint3_linear_16_23850)"/>
<path d="M216.25 54.8999C223.312 58.8885 239.499 69.3677 247.755 79.3755C244.496 82.095 239.121 85.9188 231.46 94.3328C223.04 103.579 221.139 108.384 218.423 111.194C208.428 92.0484 212.81 65.6873 216.25 54.8999Z" fill="#6A41F1"/>
<path d="M220.054 68.7275C225.688 71.9 238.601 80.2348 245.188 88.1946C242.588 90.3577 238.3 93.399 232.188 100.091C225.471 107.445 223.954 111.267 221.787 113.502C213.814 98.2743 217.309 77.3075 220.054 68.7275Z" fill="url(#paint4_linear_16_23850)"/>
<path d="M333.978 54.8999C326.917 58.8885 310.73 69.3677 302.473 79.3755C305.732 82.095 311.107 85.9188 318.769 94.3328C327.188 103.579 329.089 108.384 331.805 111.194C341.8 92.0484 337.418 65.6873 333.978 54.8999Z" fill="#6A41F1"/>
<path d="M330.175 68.7275C324.541 71.9 311.627 80.2348 305.04 88.1946C307.64 90.3577 311.929 93.399 318.041 100.091C324.758 107.445 326.274 111.267 328.441 113.502C336.415 98.2743 332.919 77.3075 330.175 68.7275Z" fill="url(#paint5_linear_16_23850)"/>
<path d="M275.227 71.6748C307.591 71.675 333.828 94.4744 333.828 122.599C333.828 128.912 332.504 134.957 330.087 140.536C333.253 139.842 336.331 139.077 339.311 138.241C335.247 146.709 328.179 153.954 319.173 159.122C322.009 158.706 324.773 158.253 327.457 157.763C319.231 168.933 298.701 176.851 274.675 176.851C250.648 176.85 230.118 168.933 221.893 157.763C224.854 158.304 227.913 158.8 231.059 159.25C221.946 154.074 214.796 146.778 210.699 138.241C213.831 139.12 217.072 139.92 220.409 140.642C217.963 135.033 216.624 128.952 216.624 122.599C216.624 94.4742 242.862 71.6748 275.227 71.6748Z" fill="url(#paint6_linear_16_23850)"/>
<path fill-rule="evenodd" clip-rule="evenodd" d="M330.798 150.229C327.462 153.619 323.549 156.617 319.178 159.125C322.013 158.709 324.776 158.255 327.459 157.765C319.234 168.935 298.702 176.851 274.676 176.851C250.649 176.851 230.118 168.935 221.892 157.765C224.853 158.306 227.911 158.803 231.055 159.253C226.539 156.687 222.505 153.601 219.086 150.1C223.244 151.064 228.447 151.74 234.751 151.74C245.418 151.74 251.078 149.909 256.541 148.141C261.638 146.492 266.564 144.898 275.226 144.898C283.888 144.898 288.814 146.492 293.911 148.141C299.375 149.909 305.034 151.74 315.702 151.74C321.721 151.74 326.737 151.124 330.798 150.229Z" fill="white"/>
<path d="M267.125 152.948C267.125 150.033 271.21 149.45 274.75 149.45V159.362C271.754 159.362 267.125 155.864 267.125 152.948Z" fill="#09116F"/>
<path d="M283.137 152.948C283.137 150.033 278.643 149.45 274.749 149.45V159.362C278.044 159.362 283.137 155.864 283.137 152.948Z" fill="#09116F"/>
<path d="M260.99 160.676C263.795 162.552 267.721 164.053 271.086 164.053C274.452 164.053 274.732 161.051 274.732 159.362" stroke="#09116F" stroke-width="3.8125" stroke-linecap="round"/>
<path d="M288.475 160.676C285.67 162.552 281.744 164.053 278.379 164.053C275.013 164.053 274.733 161.051 274.733 159.362" stroke="#09116F" stroke-width="3.8125" stroke-linecap="round"/>
<path d="M251.674 118.978C256.645 121.847 259.364 127.356 259.553 133.591C254.058 136.547 247.928 136.947 242.957 134.077C237.986 131.207 235.267 125.698 235.079 119.462C240.573 116.507 246.704 116.108 251.674 118.978Z" fill="#09116F"/>
<circle cx="248.443" cy="124.749" r="1.90625" fill="white"/>
<path d="M298.865 118.39C293.894 121.26 291.307 126.999 291.326 133.592C297.027 136.905 303.29 137.534 308.261 134.664C313.232 131.794 315.817 126.055 315.799 119.461C310.098 116.149 303.835 115.52 298.865 118.39Z" fill="#09116F"/>
<ellipse cx="1.525" cy="1.90625" rx="1.525" ry="1.90625" transform="matrix(-1 0 0 1 303.725 122.842)" fill="white"/>
<path d="M258.737 115.9C254.294 111.487 245.748 109.428 238.912 111.193" stroke="#09116F" stroke-width="3.8125" stroke-linecap="round"/>
<path d="M289.999 115.9C294.443 111.487 302.988 109.428 309.824 111.193" stroke="#09116F" stroke-width="3.8125" stroke-linecap="round"/>
<path d="M274.748 171.562C278.314 171.562 281.414 168.658 281.414 165.582L274.748 163.938L267.689 165.582C267.689 168.658 271.182 171.562 274.748 171.562Z" fill="url(#paint7_linear_16_23850)" stroke="#09116F" stroke-width="3.8125" stroke-linecap="round" stroke-linejoin="round"/>
<path d="M160.226 9.95312C152.015 14.591 133.193 26.7759 123.593 38.4127C127.383 41.5749 133.632 46.0212 142.541 55.8047C152.331 66.5561 154.542 72.1426 157.7 75.4102C169.321 53.1485 164.226 22.4964 160.226 9.95312Z" fill="#09116F"/>
<path d="M155.804 26.0312C149.253 29.7201 134.237 39.4116 126.578 48.6671C129.601 51.1822 134.588 54.7186 141.695 62.5002C149.505 71.0515 151.269 75.4948 153.788 78.0938C163.06 60.3875 158.995 36.0078 155.804 26.0312Z" fill="url(#paint8_linear_16_23850)"/>
<path d="M23.3365 9.95312C31.5473 14.591 50.3692 26.7759 59.9695 38.4127C56.1799 41.5749 49.93 46.0212 41.0215 55.8047C31.2316 66.5561 29.0209 72.1426 25.8629 75.4102C14.2414 53.1485 19.3363 22.4964 23.3365 9.95312Z" fill="#09116F"/>
<path d="M27.7589 26.0312C34.3095 29.7201 49.3253 39.4116 56.9844 48.6671C53.9611 51.1822 48.975 54.7186 41.8678 62.5002C34.0576 71.0515 32.2939 75.4948 29.7745 78.0938C20.503 60.3875 24.5677 36.0078 27.7589 26.0312Z" fill="url(#paint9_linear_16_23850)"/>
<path d="M92.125 127.938L129.258 135.516L154.685 168.207C155.413 169.144 155.158 170.507 154.141 171.117L161.103 182.953C161.498 183.625 161.326 184.486 160.702 184.954L158.734 186.43L160.59 189.908C161.382 191.394 161.797 193.053 161.797 194.737V195.187C161.797 198.111 160.43 200.867 158.102 202.637L154.752 205.182C153.271 206.307 151.211 206.271 149.771 205.093C148.682 204.201 148.137 202.805 148.336 201.411L148.398 200.977L145.496 201.869C144.266 202.248 142.932 201.773 142.218 200.702C141.558 199.712 141.567 198.419 142.241 197.438L145.336 192.938L143.805 190.641L142.427 191.428C141.704 191.841 140.782 191.601 140.354 190.887L137.68 186.43L133.852 188.344C135.255 190.641 138.062 197.225 138.062 205.188C138.062 213.15 134.49 219.224 132.703 221.266L129.258 221.648L129.641 223.562L130.803 223.756C134.239 224.329 136.947 226.997 137.57 230.425L137.957 232.555C138.025 232.93 137.97 233.318 137.8 233.659C137.493 234.272 136.859 234.651 136.174 234.633L111.586 233.96C110.343 233.926 109.352 232.908 109.352 231.664V223.562L100.547 212.078C99.3119 212.325 95.9493 212.809 92.125 212.84V212.844C92.0611 212.844 91.9973 212.842 91.9336 212.842C91.8699 212.842 91.8061 212.844 91.7422 212.844V212.84C87.9179 212.809 84.5553 212.325 83.3203 212.078L74.5156 223.562V231.664C74.5154 232.908 73.5247 233.926 72.2812 233.96L47.6934 234.633C47.0082 234.651 46.374 234.272 46.0674 233.659C45.8967 233.318 45.842 232.93 45.9102 232.555L46.2969 230.425C46.9201 226.997 49.6279 224.329 53.0645 223.756L54.2266 223.562L54.6094 221.648L51.1641 221.266C49.3776 219.224 45.8047 213.15 45.8047 205.188C45.8047 197.225 48.612 190.641 50.0156 188.344L46.1875 186.43L43.5137 190.887C43.0851 191.601 42.1636 191.841 41.4404 191.428L40.0625 190.641L38.5312 192.938L41.626 197.438C42.3002 198.419 42.3095 199.712 41.6494 200.702C40.9352 201.773 39.6017 202.248 38.3711 201.869L35.4688 200.977L35.5312 201.411C35.7302 202.805 35.1853 204.201 34.0957 205.093C32.6558 206.271 30.5964 206.307 29.1152 205.182L25.7656 202.637C23.4376 200.867 22.0703 198.111 22.0703 195.187V194.737C22.0704 193.053 22.4848 191.394 23.2773 189.908L25.1328 186.43L23.165 184.954C22.5417 184.486 22.3695 183.625 22.7646 182.953L29.7266 171.117C28.709 170.507 28.4543 169.144 29.1826 168.207L54.6094 135.516L91.7422 127.938V127.859L91.9336 127.898L92.125 127.859V127.938Z" fill="#09116F"/>
<path d="M91.9638 170.734C92.9981 165.136 96.9283 153.163 104.375 150.062H79.1094C88.6837 153.163 91.6683 165.136 91.9638 170.734Z" fill="url(#paint10_linear_16_23850)"/>
<path d="M91.3594 30.625C53.7263 30.625 23.2188 56.8478 23.2188 89.1953C23.2188 96.4573 24.7578 103.41 27.5684 109.827C23.8871 109.029 20.3083 108.148 16.8438 107.187C21.5675 116.924 29.7821 125.259 40.252 131.203C36.9558 130.725 33.7436 130.204 30.624 129.64C40.1881 142.488 64.0619 151.594 92 151.594C119.938 151.594 143.811 142.488 153.375 129.64C149.932 130.262 146.376 130.834 142.72 131.352C153.315 125.398 161.628 117.005 166.391 107.187C162.748 108.197 158.98 109.119 155.099 109.948C157.943 103.498 159.5 96.5028 159.5 89.1953C159.5 56.8478 128.992 30.625 91.3594 30.625Z" fill="url(#paint11_linear_16_23850)"/>
<path d="M98.8174 115.615C78.8395 115.854 76.3191 123.478 52.7178 123.479C38.0085 123.478 28.4529 120.345 23.5283 117.686C27.9829 122.948 33.5867 127.532 40.0527 131.203C36.7567 130.725 33.5443 130.204 30.4248 129.64C39.9889 142.488 63.8627 151.594 91.8008 151.594C119.739 151.594 143.612 142.488 153.176 129.64C149.733 130.262 146.177 130.834 142.521 131.352C146.703 129.001 150.529 126.269 153.922 123.221C151.711 123.385 149.354 123.479 146.847 123.479C122.871 123.479 120.65 115.609 99.7822 115.609L98.8174 115.615Z" fill="white"/>
<path d="M121.391 125.766C121.391 122.406 116.352 121.734 111.984 121.734V133.156C115.68 133.156 121.391 129.125 121.391 125.766Z" fill="#09116F"/>
<path d="M102.58 125.766C102.58 122.406 107.619 121.734 111.986 121.734V133.156C108.291 133.156 102.58 129.125 102.58 125.766Z" fill="#09116F"/>
<path d="M125.812 135.725C123 139.094 119.062 141.789 115.688 141.789C112.312 141.789 112.031 136.399 112.031 133.367" stroke="#09116F" stroke-width="3.82812" stroke-linecap="round"/>
<path d="M91.3594 135.577C95.5781 138.946 101.484 141.641 106.547 141.641C111.609 141.641 112.031 136.251 112.031 133.219" stroke="#09116F" stroke-width="3.82812" stroke-linecap="round"/>
<path d="M131.493 89.6392C126.395 92.5825 123.833 98.6247 123.993 105.63C129.98 109.271 136.494 110.074 141.592 107.131C146.69 104.187 149.252 98.1451 149.092 91.1392C143.105 87.4983 136.591 86.696 131.493 89.6392Z" fill="#09116F"/>
<circle cx="2.29688" cy="2.29688" r="2.29688" transform="matrix(-1 0 0 1 135.205 94.1719)" fill="white"/>
<path d="M75.1052 86.4582C82.7576 89.923 87.6863 97.1669 89.1309 105.618C81.8269 110.108 73.1314 111.184 65.4788 107.719C57.8261 104.254 52.897 97.0097 51.4526 88.5583C58.7566 84.0682 67.4526 82.9933 75.1052 86.4582Z" fill="#09116F"/>
<circle cx="73.4883" cy="94.1719" r="2.29688" fill="white"/>
<ellipse cx="21.4375" cy="27.5625" rx="21.4375" ry="27.5625" transform="matrix(-1 0 0 1 156.438 66.6094)" stroke="white" stroke-width="3.82812" stroke-linecap="round"/>
<ellipse cx="25.2656" cy="27.5625" rx="25.2656" ry="27.5625" transform="matrix(-1 0 0 1 97.4844 65.8438)" stroke="white" stroke-width="3.82812" stroke-linecap="round"/>
<path d="M116.242 83.8359C114.985 82.5791 113.493 81.5822 111.851 80.902C110.209 80.2218 108.449 79.8717 106.672 79.8717C104.895 79.8717 103.135 80.2218 101.492 80.902C99.8504 81.5822 98.3583 82.5791 97.1016 83.8359" stroke="white" stroke-width="3.82812"/>
<path d="M92.125 188.344C109.581 188.344 120.581 184.516 125.047 181.453L127.344 188.344C123.005 191.023 109.888 196.383 92.125 196.383C74.3625 196.383 59.9688 190.003 54.9922 186.812L58.0547 179.922C63.1589 183.24 74.6688 188.344 92.125 188.344Z" fill="url(#paint12_linear_16_23850)"/>
<path d="M145.038 193.278L143.337 190.726L159.925 186.047L161.987 189.912C162.867 191.563 163.328 193.406 163.328 195.278V195.777C163.328 199.026 161.809 202.088 159.222 204.054L155.501 206.883C153.855 208.134 151.566 208.093 149.966 206.784C148.755 205.793 148.151 204.241 148.372 202.692L148.441 202.21L145.216 203.202C143.849 203.623 142.367 203.096 141.574 201.905C140.84 200.805 140.851 199.369 141.6 198.279L145.038 193.278Z" fill="url(#paint13_linear_16_23850)"/>
<path d="M39.2118 193.278L40.9132 190.726L24.3247 186.047L22.2634 189.912C21.3826 191.563 20.9219 193.406 20.9219 195.278V195.777C20.9219 199.026 22.4408 202.088 25.0275 204.054L28.7492 206.883C30.395 208.134 32.6838 208.093 34.2837 206.784C35.4945 205.793 36.0992 204.241 35.8779 202.692L35.809 202.21L39.034 203.202C40.4013 203.623 41.8825 203.096 42.676 201.905C43.4096 200.805 43.3994 199.369 42.6501 198.279L39.2118 193.278Z" fill="url(#paint14_linear_16_23850)"/>
<path d="M76.8125 158.102C72.2188 154.733 58.8203 152.359 52.6953 151.594L32.0234 178.773C32.7891 178.773 34.6448 179.409 36.2344 178.773C38.1484 178.008 51.0365 161.93 53.8438 158.102C55.8854 159.378 53.9969 171.883 59.2031 174.945C64.4094 178.008 79.4922 179.794 86.3828 180.305C85.1068 174.307 81.4062 161.47 76.8125 158.102Z" fill="#6A41F1"/>
<path d="M77.1953 199.828C69.8794 199.058 59.8411 195.872 56.1406 194.469C55.2474 196.383 53.4609 201.283 53.4609 205.57C53.4609 209.858 56.013 213.737 57.2891 215.141L70.6875 217.055L78.3438 205.57C81.0234 205.953 87.0719 206.489 89.8281 205.57C92.5844 204.652 94.5495 201.997 95.1875 200.211C91.9974 200.339 84.4688 200.594 77.1953 199.828Z" fill="#6A41F1"/>
<path d="M129.641 223.562L109.352 224.711V231.661C109.352 232.906 110.344 233.925 111.589 233.957L135.801 234.594C137.197 234.631 138.303 233.423 138.143 232.035L137.97 230.535C137.573 227.098 134.921 224.354 131.5 223.841L129.641 223.562Z" fill="url(#paint15_linear_16_23850)"/>
<path d="M54.2277 223.562L74.5168 224.711V231.661C74.5168 232.906 73.5249 233.925 72.2803 233.957L48.0685 234.594C46.6719 234.631 45.5662 233.423 45.7264 232.035L45.8995 230.535C46.296 227.098 48.9481 224.354 52.3695 223.841L54.2277 223.562Z" fill="url(#paint16_linear_16_23850)"/>
</g>
<defs>
<linearGradient id="paint0_linear_16_23850" x1="218.324" y1="198.059" x2="239.172" y2="203.439" gradientUnits="userSpaceOnUse">
<stop stop-color="#FF6B29"/>
<stop offset="1" stop-color="#FFAB99"/>
</linearGradient>
<linearGradient id="paint1_linear_16_23850" x1="331.174" y1="198.059" x2="310.326" y2="203.439" gradientUnits="userSpaceOnUse">
<stop stop-color="#FF6B29"/>
<stop offset="1" stop-color="#FFAB99"/>
</linearGradient>
<linearGradient id="paint2_linear_16_23850" x1="238.416" y1="227.797" x2="257.709" y2="240.979" gradientUnits="userSpaceOnUse">
<stop stop-color="#FF6B29"/>
<stop offset="1" stop-color="#FFAB99"/>
</linearGradient>
<linearGradient id="paint3_linear_16_23850" x1="311.836" y1="227.797" x2="292.319" y2="241.574" gradientUnits="userSpaceOnUse">
<stop stop-color="#FF6B29"/>
<stop offset="1" stop-color="#FFAB99"/>
</linearGradient>
<linearGradient id="paint4_linear_16_23850" x1="216.875" y1="68.7275" x2="251.439" y2="74.2288" gradientUnits="userSpaceOnUse">
<stop stop-color="#FF6B29"/>
<stop offset="1" stop-color="#FFAB99"/>
</linearGradient>
<linearGradient id="paint5_linear_16_23850" x1="333.354" y1="68.7275" x2="298.79" y2="74.2288" gradientUnits="userSpaceOnUse">
<stop stop-color="#FF6B29"/>
<stop offset="1" stop-color="#FFAB99"/>
</linearGradient>
<linearGradient id="paint6_linear_16_23850" x1="210.699" y1="71.6748" x2="357.752" y2="116.935" gradientUnits="userSpaceOnUse">
<stop stop-color="#FF6B29"/>
<stop offset="1" stop-color="#FFAB99"/>
</linearGradient>
<linearGradient id="paint7_linear_16_23850" x1="281.414" y1="163.938" x2="267.16" y2="170.395" gradientUnits="userSpaceOnUse">
<stop stop-color="#FF6B29"/>
<stop offset="1" stop-color="#FFAB99"/>
</linearGradient>
<linearGradient id="paint8_linear_16_23850" x1="159.5" y1="26.0312" x2="119.31" y2="32.428" gradientUnits="userSpaceOnUse">
<stop stop-color="#FF6B29"/>
<stop offset="1" stop-color="#FFAB99"/>
</linearGradient>
<linearGradient id="paint9_linear_16_23850" x1="24.0625" y1="26.0312" x2="64.2526" y2="32.428" gradientUnits="userSpaceOnUse">
<stop stop-color="#FF6B29"/>
<stop offset="1" stop-color="#FFAB99"/>
</linearGradient>
<linearGradient id="paint10_linear_16_23850" x1="104.375" y1="150.062" x2="75.4842" y2="158.95" gradientUnits="userSpaceOnUse">
<stop stop-color="#FF6B29"/>
<stop offset="1" stop-color="#FFAB99"/>
</linearGradient>
<linearGradient id="paint11_linear_16_23850" x1="166.391" y1="30.625" x2="-4.27313" y2="83.7287" gradientUnits="userSpaceOnUse">
<stop stop-color="#FF6B29"/>
<stop offset="1" stop-color="#FFAB99"/>
</linearGradient>
<linearGradient id="paint12_linear_16_23850" x1="127.344" y1="179.922" x2="86.6214" y2="224.973" gradientUnits="userSpaceOnUse">
<stop stop-color="#FF6B29"/>
<stop offset="1" stop-color="#FFAB99"/>
</linearGradient>
<linearGradient id="paint13_linear_16_23850" x1="163.328" y1="186.047" x2="137.161" y2="192.8" gradientUnits="userSpaceOnUse">
<stop stop-color="#FF6B29"/>
<stop offset="1" stop-color="#FFAB99"/>
</linearGradient>
<linearGradient id="paint14_linear_16_23850" x1="20.9219" y1="186.047" x2="47.0887" y2="192.8" gradientUnits="userSpaceOnUse">
<stop stop-color="#FF6B29"/>
<stop offset="1" stop-color="#FFAB99"/>
</linearGradient>
<linearGradient id="paint15_linear_16_23850" x1="138.158" y1="223.562" x2="112.977" y2="240.111" gradientUnits="userSpaceOnUse">
<stop stop-color="#FF6B29"/>
<stop offset="1" stop-color="#FFAB99"/>
</linearGradient>
<linearGradient id="paint16_linear_16_23850" x1="45.7109" y1="223.562" x2="70.8922" y2="240.111" gradientUnits="userSpaceOnUse">
<stop stop-color="#FF6B29"/>
<stop offset="1" stop-color="#FFAB99"/>
</linearGradient>
<clipPath id="clip0_16_23850">
<rect width="366.25" height="245" fill="white"/>
</clipPath>
</defs>
</svg>
