<svg width="601" height="427" viewBox="0 0 601 427" fill="none" xmlns="http://www.w3.org/2000/svg">
<path opacity="0.5" fill-rule="evenodd" clip-rule="evenodd" d="M0.143904 200.744C-3.47107 258.135 61.8629 294.146 100.88 336.318C133.311 371.371 161.679 418.002 208.685 426.147C254.633 434.109 290.589 383.891 336.737 377.186C382.792 370.493 435.72 415.479 473.115 387.723C509.744 360.537 480.4 297.5 499.79 256.165C524.803 202.843 605.991 174.3 600.758 115.616C595.822 60.2587 529.513 28.3031 477.701 8.46112C433.277 -8.55146 384.21 3.47384 338.069 15.0177C304.514 23.4126 283.122 56.3126 249.771 65.4854C206.177 77.4751 157.058 54.1923 117.293 75.7384C66.0771 103.489 3.81141 142.518 0.143904 200.744Z" fill="url(#paint0_linear_16_23851)"/>
<defs>
<linearGradient id="paint0_linear_16_23851" x1="300.5" y1="1.31353e-05" x2="300.5" y2="427" gradientUnits="userSpaceOnUse">
<stop stop-color="#7479F6"/>
<stop offset="1" stop-color="#444790"/>
</linearGradient>
</defs>
</svg>
