<svg width="82" height="82" viewBox="0 0 82 82" fill="none" xmlns="http://www.w3.org/2000/svg">
<rect width="82" height="82" rx="41" fill="#EFF0FE"/>
<rect x="16" y="16" width="50" height="50" rx="25" fill="#EFF0FE"/>
<path d="M52.8047 25.7222C57.0235 25.7222 60.4432 29.1421 60.4434 33.3608V48.6392C60.4432 52.8579 57.0234 56.2778 52.8047 56.2778H29.1934C24.9747 56.2777 21.5549 52.8578 21.5547 48.6392V33.3608C21.5548 29.1422 24.9747 25.7223 29.1934 25.7222H52.8047ZM29.1934 29.8892C27.2759 29.8893 25.7218 31.4434 25.7217 33.3608V48.6392C25.7219 50.5566 27.2759 52.1107 29.1934 52.1108H52.8047C54.7222 52.1108 56.2772 50.5567 56.2773 48.6392V33.3608C56.2772 31.4433 54.7223 29.8892 52.8047 29.8892H29.1934ZM50.5352 34.2505C51.5777 33.7643 52.8172 34.2158 53.3037 35.2583C53.79 36.3009 53.3394 37.5403 52.2969 38.0269L42.4678 42.6138C41.5372 43.048 40.4619 43.0479 39.5312 42.6138L29.7012 38.0269C28.6588 37.5403 28.2082 36.3008 28.6943 35.2583C29.1809 34.2157 30.4212 33.7639 31.4639 34.2505L40.999 38.7007L50.5352 34.2505Z" fill="#6A41F1"/>
</svg>
