<svg width="400" height="400" viewBox="0 0 400 400" fill="none" xmlns="http://www.w3.org/2000/svg">
<path opacity="0.5" fill-rule="evenodd" clip-rule="evenodd" d="M199.804 257.75C162.322 272.967 138.523 340.99 101.514 324.658C67.5186 309.656 115.529 250.792 103.995 215.469C94.5853 186.653 46.4502 179.588 44.2687 149.353C42.1807 120.412 72.7156 99.7013 94.2385 80.2423C113.759 62.5939 135.737 44.7827 161.987 42.9225C186.75 41.1677 205.112 65.8991 229.477 70.6585C257.754 76.1822 290.731 55.844 314.138 72.644C337.185 89.1857 336.189 123.492 341.825 151.296C347.792 180.732 366.211 215.53 347.934 239.364C328.648 264.513 288.869 257.46 257.418 261.364C237.927 263.784 218.002 250.363 199.804 257.75Z" fill="url(#paint0_linear_19_23983)"/>
<path d="M275.6 239.127L299.25 234.5V296.644C297.77 296.644 296.334 297.151 295.182 298.08L288.408 303.542C286.344 305.207 285.144 307.717 285.144 310.369H269.894V301.219L267.269 300.026C266.435 299.647 266.121 298.624 266.599 297.842L269.894 292.45L266.547 290.149C264.907 289.022 264.184 286.963 264.76 285.057L269.894 268.05L258.456 284.062L245.875 280.631L259.258 251.914C262.347 245.284 268.421 240.532 275.6 239.127Z" fill="#09116F"/>
<path d="M322.9 239.127L299.25 234.5V296.644C300.73 296.644 302.166 297.151 303.318 298.08L310.092 303.542C312.156 305.207 313.356 307.717 313.356 310.369H328.606V301.219L331.231 300.026C332.065 299.647 332.379 298.624 331.901 297.842L328.606 292.45L331.953 290.149C333.593 289.022 334.316 286.963 333.74 285.057L328.606 268.05L340.044 284.062L352.625 280.631L339.242 251.914C336.153 245.284 330.079 240.532 322.9 239.127Z" fill="#09116F"/>
<path d="M273.783 239.483L299.25 234.5V292.069L269.893 292.45L266.547 290.149C264.907 289.022 264.184 286.963 264.759 285.057L269.893 268.05L258.456 284.062L245.261 279.851C242.876 279.09 241.859 276.276 243.207 274.166L258.902 249.612C262.269 244.344 267.647 240.683 273.783 239.483Z" fill="#6A41F1"/>
<path d="M322.9 239.127L299.25 234.5V292.069L328.606 292.45L331.953 290.149C333.593 289.022 334.316 286.963 333.74 285.057L328.606 268.05L340.044 284.062L352.625 280.631L339.242 251.914C336.153 245.284 330.079 240.532 322.9 239.127Z" fill="#6A41F1"/>
<path d="M257.396 285.821L258.752 283.787L245.535 280.059L243.893 283.139C243.191 284.455 242.824 285.923 242.824 287.414V287.812C242.824 290.401 244.034 292.84 246.095 294.407L249.061 296.66C250.372 297.657 252.195 297.624 253.47 296.581C254.435 295.792 254.917 294.555 254.74 293.322L254.685 292.937L257.255 293.728C258.344 294.063 259.524 293.643 260.157 292.694C260.741 291.818 260.733 290.673 260.136 289.805L257.396 285.821Z" fill="url(#paint1_linear_19_23983)"/>
<path d="M341.102 285.821L339.746 283.787L352.963 280.059L354.605 283.139C355.307 284.455 355.674 285.923 355.674 287.414V287.812C355.674 290.401 354.464 292.84 352.403 294.407L349.438 296.66C348.126 297.657 346.303 297.624 345.028 296.581C344.063 295.792 343.582 294.555 343.758 293.322L343.813 292.937L341.243 293.728C340.154 294.063 338.974 293.643 338.342 292.694C337.757 291.818 337.765 290.673 338.362 289.805L341.102 285.821Z" fill="url(#paint2_linear_19_23983)"/>
<path d="M269.572 309.797L285.525 310.665V315.376C285.525 316.616 284.535 317.631 283.295 317.662L265.008 318.125C263.765 318.156 262.783 317.077 262.931 315.842C263.298 312.787 265.669 310.36 268.714 309.921L269.572 309.797Z" fill="url(#paint3_linear_19_23983)"/>
<path d="M329.458 309.797L312.974 310.665V315.374C312.974 316.615 313.964 317.63 315.205 317.661L334.247 318.127C335.492 318.157 336.473 317.074 336.32 315.838C335.941 312.786 333.561 310.369 330.516 309.944L329.458 309.797Z" fill="url(#paint4_linear_19_23983)"/>
<path d="M240.75 136.9C247.812 140.889 263.999 151.368 272.255 161.376C268.996 164.095 263.621 167.919 255.96 176.333C247.54 185.579 245.639 190.384 242.923 193.194C232.928 174.049 237.31 147.687 240.75 136.9Z" fill="#6A41F1"/>
<path d="M244.554 150.727C250.188 153.9 263.101 162.235 269.688 170.195C267.088 172.358 262.8 175.399 256.688 182.091C249.971 189.445 248.454 193.267 246.287 195.502C238.314 180.274 241.809 159.307 244.554 150.727Z" fill="url(#paint5_linear_19_23983)"/>
<path d="M358.478 136.9C351.417 140.889 335.23 151.368 326.973 161.376C330.232 164.095 335.607 167.919 343.269 176.333C351.688 185.579 353.589 190.384 356.305 193.194C366.3 174.049 361.918 147.687 358.478 136.9Z" fill="#6A41F1"/>
<path d="M354.675 150.727C349.041 153.9 336.127 162.235 329.54 170.195C332.14 172.358 336.429 175.399 342.541 182.091C349.258 189.445 350.774 193.267 352.941 195.502C360.915 180.274 357.419 159.307 354.675 150.727Z" fill="url(#paint6_linear_19_23983)"/>
<path d="M299.727 153.675C332.091 153.675 358.328 176.475 358.328 204.599C358.328 210.913 357.004 216.957 354.587 222.536C357.753 221.843 360.831 221.077 363.811 220.241C359.747 228.709 352.679 235.954 343.673 241.122C346.509 240.706 349.273 240.254 351.957 239.763C343.731 250.933 323.201 258.851 299.175 258.851C275.148 258.851 254.618 250.934 246.393 239.763C249.354 240.304 252.413 240.8 255.559 241.25C246.446 236.074 239.296 228.779 235.199 220.241C238.331 221.12 241.572 221.921 244.909 222.642C242.463 217.034 241.124 210.952 241.124 204.599C241.124 176.474 267.362 153.675 299.727 153.675Z" fill="url(#paint7_linear_19_23983)"/>
<path fill-rule="evenodd" clip-rule="evenodd" d="M355.298 232.229C351.962 235.619 348.049 238.617 343.678 241.125C346.513 240.71 349.276 240.255 351.959 239.765C343.734 250.935 323.202 258.851 299.176 258.851C275.149 258.851 254.618 250.935 246.392 239.765C249.353 240.306 252.411 240.803 255.555 241.253C251.039 238.688 247.005 235.601 243.586 232.1C247.744 233.064 252.947 233.74 259.251 233.74C269.918 233.74 275.578 231.909 281.041 230.141C286.138 228.492 291.064 226.899 299.726 226.899C308.388 226.899 313.314 228.492 318.411 230.141C323.875 231.909 329.534 233.74 340.202 233.74C346.221 233.74 351.237 233.124 355.298 232.229Z" fill="white"/>
<path d="M291.625 234.949C291.625 232.033 295.71 231.45 299.25 231.45V241.363C296.254 241.363 291.625 237.864 291.625 234.949Z" fill="#09116F"/>
<path d="M307.637 234.949C307.637 232.033 303.143 231.45 299.249 231.45V241.363C302.544 241.363 307.637 237.864 307.637 234.949Z" fill="#09116F"/>
<path d="M285.49 242.676C288.295 244.552 292.221 246.054 295.586 246.054C298.952 246.054 299.232 243.051 299.232 241.363" stroke="#09116F" stroke-width="3.8125" stroke-linecap="round"/>
<path d="M312.975 242.676C310.17 244.552 306.244 246.054 302.879 246.054C299.513 246.054 299.233 243.051 299.233 241.363" stroke="#09116F" stroke-width="3.8125" stroke-linecap="round"/>
<path d="M276.174 200.978C281.145 203.847 283.864 209.356 284.053 215.592C278.558 218.547 272.428 218.947 267.457 216.077C262.486 213.207 259.767 207.698 259.579 201.462C265.073 198.507 271.204 198.108 276.174 200.978Z" fill="#09116F"/>
<circle cx="272.943" cy="206.749" r="1.90625" fill="white"/>
<path d="M323.365 200.39C318.394 203.26 315.807 208.999 315.826 215.592C321.527 218.905 327.79 219.534 332.761 216.665C337.732 213.795 340.317 208.055 340.299 201.461C334.598 198.149 328.335 197.521 323.365 200.39Z" fill="#09116F"/>
<ellipse cx="1.525" cy="1.90625" rx="1.525" ry="1.90625" transform="matrix(-1 0 0 1 328.225 204.842)" fill="white"/>
<path d="M283.237 197.9C278.794 193.487 270.248 191.428 263.412 193.193" stroke="#09116F" stroke-width="3.8125" stroke-linecap="round"/>
<path d="M314.499 197.9C318.943 193.487 327.488 191.428 334.324 193.193" stroke="#09116F" stroke-width="3.8125" stroke-linecap="round"/>
<path d="M299.248 253.562C302.814 253.562 305.914 250.658 305.914 247.582L299.248 245.938L292.189 247.582C292.189 250.658 295.682 253.562 299.248 253.562Z" fill="url(#paint8_linear_19_23983)" stroke="#09116F" stroke-width="3.8125" stroke-linecap="round" stroke-linejoin="round"/>
<path d="M185.226 91.9531C177.015 96.591 158.193 108.776 148.593 120.413C152.383 123.575 158.632 128.021 167.541 137.805C177.331 148.556 179.542 154.143 182.7 157.41C194.321 135.148 189.226 104.496 185.226 91.9531Z" fill="#09116F"/>
<path d="M180.804 108.031C174.253 111.72 159.237 121.412 151.578 130.667C154.601 133.182 159.588 136.719 166.695 144.5C174.505 153.051 176.269 157.495 178.788 160.094C188.06 142.387 183.995 118.008 180.804 108.031Z" fill="url(#paint9_linear_19_23983)"/>
<path d="M48.3365 91.9531C56.5473 96.591 75.3692 108.776 84.9695 120.413C81.1799 123.575 74.93 128.021 66.0215 137.805C56.2316 148.556 54.0209 154.143 50.8629 157.41C39.2414 135.148 44.3363 104.496 48.3365 91.9531Z" fill="#09116F"/>
<path d="M52.7589 108.031C59.3095 111.72 74.3253 121.412 81.9844 130.667C78.9611 133.182 73.975 136.719 66.8678 144.5C59.0576 153.051 57.2939 157.495 54.7745 160.094C45.503 142.387 49.5677 118.008 52.7589 108.031Z" fill="url(#paint10_linear_19_23983)"/>
<path d="M117.125 209.938L154.258 217.516L179.685 250.207C180.413 251.144 180.158 252.507 179.141 253.117L186.103 264.953C186.498 265.625 186.326 266.486 185.702 266.954L183.734 268.43L185.59 271.908C186.382 273.394 186.797 275.053 186.797 276.737V277.187C186.797 280.111 185.43 282.867 183.102 284.637L179.752 287.182C178.271 288.307 176.211 288.271 174.771 287.093C173.682 286.201 173.137 284.805 173.336 283.411L173.398 282.977L170.496 283.869C169.266 284.248 167.932 283.773 167.218 282.702C166.558 281.712 166.567 280.419 167.241 279.438L170.336 274.938L168.805 272.641L167.427 273.428C166.704 273.841 165.782 273.601 165.354 272.887L162.68 268.43L158.852 270.344C160.255 272.641 163.062 279.225 163.062 287.188C163.062 295.15 159.49 301.224 157.703 303.266L154.258 303.648L154.641 305.562L155.803 305.756C159.239 306.329 161.947 308.997 162.57 312.425L162.957 314.555C163.025 314.93 162.97 315.318 162.8 315.659C162.493 316.272 161.859 316.651 161.174 316.633L136.586 315.96C135.343 315.926 134.352 314.908 134.352 313.664V305.562L125.547 294.078C124.312 294.325 120.949 294.809 117.125 294.84V294.844C117.061 294.844 116.997 294.842 116.934 294.842C116.87 294.842 116.806 294.844 116.742 294.844V294.84C112.918 294.809 109.555 294.325 108.32 294.078L99.5156 305.562V313.664C99.5154 314.908 98.5247 315.926 97.2812 315.96L72.6934 316.633C72.0082 316.651 71.374 316.272 71.0674 315.659C70.8967 315.318 70.842 314.93 70.9102 314.555L71.2969 312.425C71.9201 308.997 74.6279 306.329 78.0645 305.756L79.2266 305.562L79.6094 303.648L76.1641 303.266C74.3776 301.224 70.8047 295.15 70.8047 287.188C70.8047 279.225 73.612 272.641 75.0156 270.344L71.1875 268.43L68.5137 272.887C68.0851 273.601 67.1636 273.841 66.4404 273.428L65.0625 272.641L63.5312 274.938L66.626 279.438C67.3002 280.419 67.3095 281.712 66.6494 282.702C65.9352 283.773 64.6017 284.248 63.3711 283.869L60.4688 282.977L60.5312 283.411C60.7302 284.805 60.1853 286.201 59.0957 287.093C57.6558 288.271 55.5964 288.307 54.1152 287.182L50.7656 284.637C48.4376 282.867 47.0703 280.111 47.0703 277.187V276.737C47.0704 275.053 47.4848 273.394 48.2773 271.908L50.1328 268.43L48.165 266.954C47.5417 266.486 47.3695 265.625 47.7646 264.953L54.7266 253.117C53.709 252.507 53.4543 251.144 54.1826 250.207L79.6094 217.516L116.742 209.938V209.859L116.934 209.898L117.125 209.859V209.938Z" fill="#09116F"/>
<path d="M116.964 252.734C117.998 247.136 121.928 235.163 129.375 232.062H104.109C113.684 235.163 116.668 247.136 116.964 252.734Z" fill="url(#paint11_linear_19_23983)"/>
<path d="M116.359 112.625C78.7263 112.625 48.2188 138.848 48.2188 171.195C48.2188 178.457 49.7578 185.41 52.5684 191.827C48.8871 191.029 45.3083 190.148 41.8438 189.187C46.5675 198.924 54.7821 207.259 65.252 213.203C61.9558 212.725 58.7436 212.204 55.624 211.64C65.1881 224.488 89.0619 233.594 117 233.594C144.938 233.594 168.811 224.488 178.375 211.64C174.932 212.262 171.376 212.834 167.72 213.352C178.315 207.398 186.628 199.005 191.391 189.187C187.748 190.197 183.98 191.119 180.099 191.948C182.943 185.498 184.5 178.503 184.5 171.195C184.5 138.848 153.992 112.625 116.359 112.625Z" fill="url(#paint12_linear_19_23983)"/>
<path d="M123.817 197.615C103.839 197.854 101.319 205.478 77.7178 205.479C63.0085 205.478 53.4529 202.345 48.5283 199.686C52.9829 204.948 58.5867 209.532 65.0527 213.203C61.7567 212.725 58.5443 212.204 55.4248 211.64C64.9889 224.488 88.8627 233.594 116.801 233.594C144.739 233.594 168.612 224.488 178.176 211.64C174.733 212.262 171.177 212.834 167.521 213.352C171.703 211.001 175.529 208.269 178.922 205.221C176.711 205.385 174.354 205.479 171.847 205.479C147.871 205.479 145.65 197.609 124.782 197.609L123.817 197.615Z" fill="white"/>
<path d="M146.391 207.766C146.391 204.406 141.352 203.734 136.984 203.734V215.156C140.68 215.156 146.391 211.125 146.391 207.766Z" fill="#09116F"/>
<path d="M127.58 207.766C127.58 204.406 132.619 203.734 136.986 203.734V215.156C133.291 215.156 127.58 211.125 127.58 207.766Z" fill="#09116F"/>
<path d="M150.812 217.725C148 221.094 144.062 223.789 140.688 223.789C137.312 223.789 137.031 218.399 137.031 215.367" stroke="#09116F" stroke-width="3.82812" stroke-linecap="round"/>
<path d="M116.359 217.577C120.578 220.946 126.484 223.641 131.547 223.641C136.609 223.641 137.031 218.251 137.031 215.219" stroke="#09116F" stroke-width="3.82812" stroke-linecap="round"/>
<path d="M156.493 171.639C151.395 174.583 148.833 180.625 148.993 187.631C154.98 191.272 161.494 192.074 166.592 189.131C171.69 186.187 174.252 180.145 174.092 173.139C168.105 169.498 161.591 168.696 156.493 171.639Z" fill="#09116F"/>
<circle cx="2.29688" cy="2.29688" r="2.29688" transform="matrix(-1 0 0 1 160.205 176.172)" fill="white"/>
<path d="M100.105 168.458C107.758 171.923 112.686 179.167 114.131 187.618C106.827 192.108 98.1314 193.184 90.4788 189.719C82.8261 186.255 77.897 179.01 76.4526 170.558C83.7566 166.068 92.4526 164.993 100.105 168.458Z" fill="#09116F"/>
<circle cx="98.4883" cy="176.172" r="2.29688" fill="white"/>
<ellipse cx="21.4375" cy="27.5625" rx="21.4375" ry="27.5625" transform="matrix(-1 0 0 1 181.438 148.609)" stroke="white" stroke-width="3.82812" stroke-linecap="round"/>
<ellipse cx="25.2656" cy="27.5625" rx="25.2656" ry="27.5625" transform="matrix(-1 0 0 1 122.484 147.844)" stroke="white" stroke-width="3.82812" stroke-linecap="round"/>
<path d="M141.242 165.836C139.985 164.579 138.493 163.582 136.851 162.902C135.209 162.222 133.449 161.872 131.672 161.872C129.895 161.872 128.135 162.222 126.492 162.902C124.85 163.582 123.358 164.579 122.102 165.836" stroke="white" stroke-width="3.82812"/>
<path d="M117.125 270.344C134.581 270.344 145.581 266.516 150.047 263.453L152.344 270.344C148.005 273.023 134.888 278.383 117.125 278.383C99.3625 278.383 84.9688 272.003 79.9922 268.812L83.0547 261.922C88.1589 265.24 99.6688 270.344 117.125 270.344Z" fill="url(#paint13_linear_19_23983)"/>
<path d="M170.038 275.278L168.337 272.726L184.925 268.047L186.987 271.912C187.867 273.563 188.328 275.406 188.328 277.278V277.777C188.328 281.026 186.809 284.088 184.222 286.054L180.501 288.883C178.855 290.134 176.566 290.093 174.966 288.784C173.755 287.793 173.151 286.241 173.372 284.692L173.441 284.21L170.216 285.202C168.849 285.623 167.367 285.096 166.574 283.905C165.84 282.805 165.851 281.369 166.6 280.279L170.038 275.278Z" fill="url(#paint14_linear_19_23983)"/>
<path d="M64.2118 275.278L65.9132 272.726L49.3247 268.047L47.2634 271.912C46.3826 273.563 45.9219 275.406 45.9219 277.278V277.777C45.9219 281.026 47.4408 284.088 50.0275 286.054L53.7492 288.883C55.395 290.134 57.6838 290.093 59.2837 288.784C60.4945 287.793 61.0992 286.241 60.8779 284.692L60.809 284.21L64.034 285.202C65.4013 285.623 66.8825 285.096 67.676 283.905C68.4096 282.805 68.3994 281.369 67.6501 280.279L64.2118 275.278Z" fill="url(#paint15_linear_19_23983)"/>
<path d="M101.812 240.102C97.2188 236.733 83.8203 234.359 77.6953 233.594L57.0234 260.773C57.7891 260.773 59.6448 261.409 61.2344 260.773C63.1484 260.008 76.0365 243.93 78.8438 240.102C80.8854 241.378 78.9969 253.883 84.2031 256.945C89.4094 260.008 104.492 261.794 111.383 262.305C110.107 256.307 106.406 243.47 101.812 240.102Z" fill="#6A41F1"/>
<path d="M102.195 281.828C94.8794 281.058 84.8411 277.872 81.1406 276.469C80.2474 278.383 78.4609 283.283 78.4609 287.57C78.4609 291.858 81.013 295.737 82.2891 297.141L95.6875 299.055L103.344 287.57C106.023 287.953 112.072 288.489 114.828 287.57C117.584 286.652 119.549 283.997 120.188 282.211C116.997 282.339 109.469 282.594 102.195 281.828Z" fill="#6A41F1"/>
<path d="M154.641 305.562L134.352 306.711V313.661C134.352 314.906 135.344 315.925 136.589 315.957L160.801 316.594C162.197 316.631 163.303 315.423 163.143 314.035L162.97 312.535C162.573 309.098 159.921 306.354 156.5 305.841L154.641 305.562Z" fill="url(#paint16_linear_19_23983)"/>
<path d="M79.2277 305.562L99.5168 306.711V313.661C99.5168 314.906 98.5249 315.925 97.2803 315.957L73.0685 316.594C71.6719 316.631 70.5662 315.423 70.7264 314.035L70.8995 312.535C71.296 309.098 73.9481 306.354 77.3695 305.841L79.2277 305.562Z" fill="url(#paint17_linear_19_23983)"/>
<defs>
<linearGradient id="paint0_linear_19_23983" x1="355.818" y1="327.171" x2="-6.68563" y2="227.165" gradientUnits="userSpaceOnUse">
<stop stop-color="#FF6B29"/>
<stop offset="1" stop-color="#FFAB99"/>
</linearGradient>
<linearGradient id="paint1_linear_19_23983" x1="242.824" y1="280.059" x2="263.672" y2="285.44" gradientUnits="userSpaceOnUse">
<stop stop-color="#FF6B29"/>
<stop offset="1" stop-color="#FFAB99"/>
</linearGradient>
<linearGradient id="paint2_linear_19_23983" x1="355.674" y1="280.059" x2="334.826" y2="285.44" gradientUnits="userSpaceOnUse">
<stop stop-color="#FF6B29"/>
<stop offset="1" stop-color="#FFAB99"/>
</linearGradient>
<linearGradient id="paint3_linear_19_23983" x1="262.916" y1="309.797" x2="282.209" y2="322.979" gradientUnits="userSpaceOnUse">
<stop stop-color="#FF6B29"/>
<stop offset="1" stop-color="#FFAB99"/>
</linearGradient>
<linearGradient id="paint4_linear_19_23983" x1="336.336" y1="309.797" x2="316.819" y2="323.574" gradientUnits="userSpaceOnUse">
<stop stop-color="#FF6B29"/>
<stop offset="1" stop-color="#FFAB99"/>
</linearGradient>
<linearGradient id="paint5_linear_19_23983" x1="241.375" y1="150.727" x2="275.939" y2="156.229" gradientUnits="userSpaceOnUse">
<stop stop-color="#FF6B29"/>
<stop offset="1" stop-color="#FFAB99"/>
</linearGradient>
<linearGradient id="paint6_linear_19_23983" x1="357.854" y1="150.727" x2="323.29" y2="156.229" gradientUnits="userSpaceOnUse">
<stop stop-color="#FF6B29"/>
<stop offset="1" stop-color="#FFAB99"/>
</linearGradient>
<linearGradient id="paint7_linear_19_23983" x1="235.199" y1="153.675" x2="382.252" y2="198.935" gradientUnits="userSpaceOnUse">
<stop stop-color="#FF6B29"/>
<stop offset="1" stop-color="#FFAB99"/>
</linearGradient>
<linearGradient id="paint8_linear_19_23983" x1="305.914" y1="245.938" x2="291.66" y2="252.395" gradientUnits="userSpaceOnUse">
<stop stop-color="#FF6B29"/>
<stop offset="1" stop-color="#FFAB99"/>
</linearGradient>
<linearGradient id="paint9_linear_19_23983" x1="184.5" y1="108.031" x2="144.31" y2="114.428" gradientUnits="userSpaceOnUse">
<stop stop-color="#FF6B29"/>
<stop offset="1" stop-color="#FFAB99"/>
</linearGradient>
<linearGradient id="paint10_linear_19_23983" x1="49.0625" y1="108.031" x2="89.2526" y2="114.428" gradientUnits="userSpaceOnUse">
<stop stop-color="#FF6B29"/>
<stop offset="1" stop-color="#FFAB99"/>
</linearGradient>
<linearGradient id="paint11_linear_19_23983" x1="129.375" y1="232.062" x2="100.484" y2="240.95" gradientUnits="userSpaceOnUse">
<stop stop-color="#FF6B29"/>
<stop offset="1" stop-color="#FFAB99"/>
</linearGradient>
<linearGradient id="paint12_linear_19_23983" x1="191.391" y1="112.625" x2="20.7269" y2="165.729" gradientUnits="userSpaceOnUse">
<stop stop-color="#FF6B29"/>
<stop offset="1" stop-color="#FFAB99"/>
</linearGradient>
<linearGradient id="paint13_linear_19_23983" x1="152.344" y1="261.922" x2="111.621" y2="306.973" gradientUnits="userSpaceOnUse">
<stop stop-color="#FF6B29"/>
<stop offset="1" stop-color="#FFAB99"/>
</linearGradient>
<linearGradient id="paint14_linear_19_23983" x1="188.328" y1="268.047" x2="162.161" y2="274.8" gradientUnits="userSpaceOnUse">
<stop stop-color="#FF6B29"/>
<stop offset="1" stop-color="#FFAB99"/>
</linearGradient>
<linearGradient id="paint15_linear_19_23983" x1="45.9219" y1="268.047" x2="72.0887" y2="274.8" gradientUnits="userSpaceOnUse">
<stop stop-color="#FF6B29"/>
<stop offset="1" stop-color="#FFAB99"/>
</linearGradient>
<linearGradient id="paint16_linear_19_23983" x1="163.158" y1="305.562" x2="137.977" y2="322.111" gradientUnits="userSpaceOnUse">
<stop stop-color="#FF6B29"/>
<stop offset="1" stop-color="#FFAB99"/>
</linearGradient>
<linearGradient id="paint17_linear_19_23983" x1="70.7109" y1="305.562" x2="95.8922" y2="322.111" gradientUnits="userSpaceOnUse">
<stop stop-color="#FF6B29"/>
<stop offset="1" stop-color="#FFAB99"/>
</linearGradient>
</defs>
</svg>
