<svg width="82" height="82" viewBox="0 0 82 82" fill="none" xmlns="http://www.w3.org/2000/svg">
<rect width="82" height="82" rx="41" fill="#EFF0FE"/>
<rect x="16" y="16" width="50" height="50" rx="25" fill="#EFF0FE"/>
<path fill-rule="evenodd" clip-rule="evenodd" d="M37.8657 24.6741C39.1235 22.0383 42.8754 22.0383 44.1332 24.6741L47.993 32.7631L56.8788 33.9344C59.7743 34.3161 60.9337 37.8844 58.8156 39.8951L52.3153 46.0656L53.9472 54.8785C54.4789 57.7502 51.4435 59.9555 48.8767 58.5624L40.9995 54.2871L33.1222 58.5624C30.5554 59.9555 27.52 57.7502 28.0517 54.8785L29.6836 46.0656L23.1834 39.8951C21.0652 37.8844 22.2246 34.3161 25.1201 33.9344L34.0059 32.7631L37.8657 24.6741ZM40.9995 27.782L37.6041 34.8976C37.0979 35.9584 36.0894 36.6911 34.9241 36.8447L27.1075 37.8751L32.8256 43.3032C33.6781 44.1124 34.0633 45.2979 33.8493 46.4537L32.4137 54.2061L39.3432 50.4452C40.3762 49.8846 41.6227 49.8846 42.6558 50.4452L49.5852 54.2061L48.1497 46.4537C47.9357 45.2979 48.3209 44.1124 49.1733 43.3032L54.8914 37.8751L47.0748 36.8447C45.9095 36.6911 44.9011 35.9584 44.3949 34.8976L40.9995 27.782Z" fill="#6A41F1"/>
</svg>
